<svg width="360" height="120" viewBox="0 0 360 120" xmlns="http://www.w3.org/2000/svg"><g fill="none" fill-rule="nonzero"><path d="M106.18 47.52V10.33C106.18 4.65 110.83 0 116.5 0H27.66c-5.7 0-10.3 4.62-10.3 10.31v95.07h68.16v4.13a10.33 10.33 0 0020.66 0V47.52z" fill="#EBE4DA"/><g fill="#BCB2A7"><path d="M116.5 0c5.69 0 10.34 4.65 10.34 10.33v47.52h-20.66V10.33C106.18 4.65 110.83 0 116.5 0M85.52 109.5v-4.12H7v4.13c0 5.68 4.65 10.33 10.33 10.33h78.52a10.36 10.36 0 01-10.33-10.33M68.99 28.93H52.46a2.07 2.07 0 010-4.14h16.53a2.07 2.07 0 010 4.14M46.26 26.86a2.07 2.07 0 11-4.14 0 2.07 2.07 0 014.14 0M35.93 28.93h-8.27a2.07 2.07 0 010-4.14h8.27a2.07 2.07 0 010 4.14M95.85 28.93H85.52a2.07 2.07 0 010-4.14h10.33a2.07 2.07 0 010 4.14M79.32 26.86a2.07 2.07 0 11-4.14 0 2.07 2.07 0 014.14 0M44.2 18.6h-8.27a2.07 2.07 0 010-4.14h8.26a2.07 2.07 0 010 4.14M25.6 16.53a2.07 2.07 0 114.13 0 2.07 2.07 0 01-4.13 0M93.78 16.53a2.07 2.07 0 114.13 0 2.07 2.07 0 01-4.13 0M87.58 18.6h-6.2a2.07 2.07 0 010-4.14h6.2a2.07 2.07 0 010 4.14M71.05 16.53a2.07 2.07 0 114.14 0 2.07 2.07 0 01-4.14 0M50.39 16.53a2.07 2.07 0 114.13 0 2.07 2.07 0 01-4.13 0M64.85 18.6h-4.13a2.07 2.07 0 010-4.14h4.13a2.07 2.07 0 010 4.14M44.2 39.26h-8.27a2.07 2.07 0 010-4.13h8.26a2.07 2.07 0 010 4.13M25.6 37.2a2.07 2.07 0 114.13 0 2.07 2.07 0 01-4.13 0M93.78 37.2a2.07 2.07 0 114.13 0 2.07 2.07 0 01-4.13 0M87.58 39.26h-6.2a2.07 2.07 0 010-4.13h6.2a2.07 2.07 0 010 4.13M71.05 37.2a2.07 2.07 0 114.14 0 2.07 2.07 0 01-4.14 0M50.39 37.2a2.07 2.07 0 114.13 0 2.07 2.07 0 01-4.13 0M64.85 39.26h-4.13a2.07 2.07 0 010-4.13h4.13a2.07 2.07 0 010 4.13M68.99 49.59H52.46a2.07 2.07 0 010-4.13h16.53a2.07 2.07 0 010 4.13M46.26 47.52a2.07 2.07 0 11-4.14 0 2.07 2.07 0 014.14 0M35.93 49.59h-8.27a2.07 2.07 0 010-4.13h8.27a2.07 2.07 0 010 4.13M95.85 49.59H85.52a2.07 2.07 0 010-4.13h10.33a2.07 2.07 0 010 4.13M79.32 47.52a2.07 2.07 0 11-4.14 0 2.07 2.07 0 014.14 0M44.2 59.92h-8.27a2.07 2.07 0 010-4.13h8.26a2.07 2.07 0 010 4.13M25.6 57.85a2.07 2.07 0 114.13 0 2.07 2.07 0 01-4.13 0M93.78 57.85a2.07 2.07 0 114.13 0 2.07 2.07 0 01-4.13 0M87.58 59.92h-6.2a2.07 2.07 0 010-4.13h6.2a2.07 2.07 0 010 4.13M71.05 57.85a2.07 2.07 0 114.14 0 2.07 2.07 0 01-4.14 0M50.39 57.85a2.07 2.07 0 114.13 0 2.07 2.07 0 01-4.13 0M64.85 59.92h-4.13a2.07 2.07 0 010-4.13h4.13a2.07 2.07 0 010 4.13M44.2 70.25h-8.27a2.07 2.07 0 010-4.13h8.26a2.07 2.07 0 010 4.13M25.6 68.18a2.07 2.07 0 114.13 0 2.07 2.07 0 01-4.13 0M93.78 68.18a2.07 2.07 0 114.13 0 2.07 2.07 0 01-4.13 0M87.58 70.25h-6.2a2.07 2.07 0 010-4.13h6.2a2.07 2.07 0 010 4.13M71.05 68.18a2.07 2.07 0 114.14 0 2.07 2.07 0 01-4.14 0M50.39 68.18a2.07 2.07 0 114.13 0 2.07 2.07 0 01-4.13 0M64.85 70.25h-4.13a2.07 2.07 0 010-4.13h4.13a2.07 2.07 0 010 4.13M68.99 80.58H52.46a2.07 2.07 0 010-4.13h16.53a2.07 2.07 0 010 4.13M46.26 78.52a2.07 2.07 0 11-4.14 0 2.07 2.07 0 014.14 0M35.93 80.58h-8.27a2.07 2.07 0 010-4.13h8.27a2.07 2.07 0 010 4.13M95.85 80.58H85.52a2.07 2.07 0 010-4.13h10.33a2.07 2.07 0 010 4.13M79.32 78.52a2.07 2.07 0 11-4.14 0 2.07 2.07 0 014.14 0M44.2 90.91h-8.27a2.07 2.07 0 010-4.13h8.26a2.07 2.07 0 010 4.13M25.6 88.85a2.07 2.07 0 114.13 0 2.07 2.07 0 01-4.13 0M93.78 88.85a2.07 2.07 0 114.13 0 2.07 2.07 0 01-4.13 0M87.58 90.91h-6.2a2.07 2.07 0 010-4.13h6.2a2.07 2.07 0 010 4.13M71.05 88.85a2.07 2.07 0 114.14 0 2.07 2.07 0 01-4.14 0M50.39 88.85a2.07 2.07 0 114.13 0 2.07 2.07 0 01-4.13 0M64.85 90.91h-4.13a2.07 2.07 0 010-4.13h4.13a2.07 2.07 0 010 4.13"/></g><path d="M182.27 52.65v15.13c0 12.49.34 17.93 1.87 19.46 1.36 1.36 3.57 1.95 10.2 1.95 4.5 0 8.25-.08 10.28-2.55a11.85 11.85 0 002.22-5.1c.08-.68.25-1.1.76-1.1.43 0 .51.34.51 1.28 0 .93-.6 6.03-1.28 8.5-.59 1.95-.84 2.29-5.35 2.29-6.12 0-10.54-.17-14.11-.26-3.57-.17-6.2-.25-8.67-.25-.34 0-1.78.08-3.48.08-1.7.09-3.57.17-4.85.17-.94 0-1.36-.17-1.36-.67 0-.26.17-.52.68-.52.77 0 1.78-.17 2.55-.34 1.7-.33 2.13-2.2 2.47-4.67.42-3.57.42-10.28.42-18.44V52.65c0-13.27 0-15.64-.17-18.37-.17-2.89-.85-4.25-3.66-4.84a15.9 15.9 0 00-2.89-.26c-.34 0-.67-.16-.67-.5 0-.52.42-.68 1.35-.68 3.83 0 9.19.25 9.61.25.43 0 6.63-.25 9.18-.25.94 0 1.36.16 1.36.68 0 .34-.34.5-.68.5-.6 0-1.78.09-2.8.26-2.47.42-3.15 1.87-3.32 4.84-.17 2.73-.17 5.1-.17 18.37zm48.02 5.86v12.75c0 6.97 0 12.66.34 15.64.26 2.13.52 3.48 2.72 3.82 1.11.17 2.72.34 3.4.34.43 0 .6.34.6.6 0 .34-.34.6-1.19.6-4.16 0-9.01-.26-9.35-.26-.43 0-5.1.25-7.4.25-.76 0-1.19-.17-1.19-.59 0-.25.18-.6.6-.6.68 0 1.62-.17 2.3-.34 1.44-.33 1.7-1.7 1.95-3.82.34-2.98.43-8.67.43-15.64V58.51c0-11.22 0-13.26-.18-15.55-.16-2.47-.76-3.58-2.38-3.91-.84-.17-1.78-.26-2.29-.26-.34 0-.6-.34-.6-.6 0-.42.34-.59 1.2-.59 2.46 0 7.13.17 7.56.17.34 0 5.19-.17 7.48-.17.85 0 1.19.17 1.19.6 0 .25-.34.59-.6.59-.5 0-1.01 0-1.87.17-2.03.42-2.46 1.45-2.63 4-.09 2.29-.09 4.33-.09 15.55zm28.57-12.07l14.1 36.38c4.34-9.69 14.12-34.34 15.73-39.52.34-1.11.68-2.13.68-2.72 0-.6-.25-1.28-1.02-1.53-.85-.26-1.7-.26-2.55-.26-.43 0-.85-.26-.85-.6 0-.42.51-.59 1.7-.59 2.98 0 6.38.17 7.31.17.43 0 3.66-.17 5.87-.17.76 0 1.19.17 1.19.51 0 .34-.26.68-.85.68-.52 0-2.22 0-3.57.85-1.03.68-2.22 1.7-4.17 6.63-.85 2.04-4.5 10.71-8.33 19.55-4.59 10.54-7.9 18.36-9.6 21.93-2.05 4.33-2.47 5.44-3.24 5.44-.84 0-1.36-.94-2.8-4.42L250.1 44.49c-1.7-4.09-2.72-4.85-5.19-5.45-1.19-.25-2.46-.25-2.88-.25-.43 0-.6-.42-.6-.68 0-.42.76-.51 1.95-.51 3.58 0 7.83.17 8.76.17.77 0 4.08-.17 6.97-.17 1.36 0 2.04.17 2.04.51 0 .34-.25.68-.76.68-.85 0-2.04.09-2.72.34-.77.34-.86.77-.86 1.27 0 .94.94 3.15 2.05 6.04zm61.7 33.23v-6.2c0-3.91-.5-5.36-1.61-7.4-.6-1.1-10.71-17.16-13.26-20.99a18.75 18.75 0 00-4.93-5.27 7.36 7.36 0 00-3.14-1.02c-.43 0-.77-.34-.77-.68s.25-.51.94-.51c1.44 0 7.05.17 7.39.17.51 0 3.57-.17 6.46-.17.85 0 1.02.17 1.02.51 0 .26-.51.51-1.19.77-.6.25-.94.59-.94 1.18 0 1.02.52 1.88 1.03 2.81l13.6 22.52c1.52-3.05 10.88-18.52 12.23-20.9.94-1.62 1.28-2.81 1.28-3.75 0-1.02-.34-1.61-1.19-1.87-.68-.16-1.1-.5-1.1-.84 0-.26.42-.43 1.19-.43 1.95 0 4.58.17 5.18.17.51 0 5.87-.17 7.31-.17.51 0 .94.17.94.42 0 .34-.35.77-.94.77-.85 0-2.3.26-3.49.94-1.44.85-2.12 1.61-3.74 3.57-2.46 2.89-13 19.89-14.53 22.95-1.28 2.55-.94 4.84-.94 7.22v6.2c0 1.2 0 4.25.26 7.23.17 2.13.68 3.48 2.89 3.82 1.02.17 2.72.34 3.4.34.42 0 .6.34.6.6 0 .34-.43.6-1.2.6-4.16 0-9-.26-9.43-.26-.34 0-5.1.25-7.31.25-.85 0-1.19-.17-1.19-.59 0-.25.17-.6.6-.6.67 0 1.52-.17 2.2-.34 1.53-.33 2.05-1.7 2.21-3.82.18-2.98.18-6.04.18-7.23z" fill="#676058"/></g></svg>