<svg width="527" height="151" viewBox="0 0 527 151" xmlns="http://www.w3.org/2000/svg"><g fill="none" fill-rule="nonzero"><path d="M98.08 22.44v15.23c0 3.45 0 6.3.18 7.81.1 1.04.32 1.84 1.4 1.98.5.07 1.3.14 1.62.14.22 0 .29.11.29.22 0 .18-.18.29-.58.29-1.98 0-4.25-.11-4.43-.11-.18 0-2.44.1-3.52.1-.4 0-.58-.06-.58-.28 0-.1.07-.22.29-.22.32 0 .75-.07 1.08-.14.72-.14.9-.94 1.04-1.98.18-1.51.18-4.36.18-7.81V22.44l-5.33.07c-2.23.04-3.1.29-3.67 1.15-.4.62-.5.87-.61 1.12-.1.29-.22.36-.36.36-.1 0-.18-.1-.18-.32 0-.36.72-3.46.8-3.75.06-.21.2-.68.35-.68.25 0 .61.36 1.59.43 1.04.1 2.4.18 2.84.18h13.5c1.15 0 1.98-.07 2.56-.18.54-.07.86-.18 1-.18.18 0 .18.22.18.43 0 1.08-.1 3.57-.1 3.96 0 .33-.11.47-.26.47-.18 0-.25-.1-.28-.61l-.04-.4c-.1-1.08-.97-1.9-4.43-1.98l-4.53-.07zm34.99 11.38v5.4c0 2.95.03 5.36.18 6.62.1.9.18 1.48 1.15 1.62.43.07 1.15.14 1.4.14.22 0 .3.15.3.26 0 .14-.19.25-.55.25-1.73 0-3.74-.11-3.92-.11-.15 0-2.2.1-3.13.1-.36 0-.5-.06-.5-.24 0-.11.06-.26.24-.26.3 0 .65-.07.94-.14.65-.14.76-.76.86-1.66.15-1.26.15-3.56.15-6.51v-3.06c0-.15-.07-.18-.18-.18H116.8c-.11 0-.18.03-.18.18v3.06c0 2.95 0 5.29.14 6.55.1.9.22 1.48 1.15 1.62.47.07 1.15.14 1.44.14.18 0 .25.15.25.26 0 .14-.14.25-.5.25-1.76 0-3.78-.11-3.92-.11-.18 0-2.2.1-3.17.1-.33 0-.5-.06-.5-.24 0-.11.07-.26.25-.26.28 0 .68-.07.97-.14.61-.14.68-.72.83-1.62.18-1.26.18-3.67.18-6.62v-5.4c0-4.76 0-5.62-.08-6.6-.07-1.04-.25-1.54-1.3-1.68-.24-.04-.78-.08-1.07-.08-.11 0-.25-.14-.25-.25 0-.18.14-.25.5-.25 1.44 0 3.46.07 3.64.07.14 0 2.16-.07 3.13-.07.36 0 .5.07.5.25 0 .11-.14.25-.25.25-.22 0-.43 0-.8.08-.86.18-1.04.6-1.1 1.69-.04.97-.04 1.9-.04 6.66v.65c0 .18.07.18.18.18H130c.12 0 .19 0 .19-.18v-.65c0-4.75-.04-5.69-.07-6.66-.08-1.05-.22-1.55-1.26-1.7-.26-.03-.8-.07-1.08-.07-.15 0-.26-.14-.26-.25 0-.18.15-.25.5-.25 1.41 0 3.46.07 3.6.07.19 0 2.2-.07 3.14-.07.36 0 .54.07.54.25 0 .11-.14.25-.29.25-.21 0-.4 0-.79.08-.83.18-1 .6-1.08 1.69-.07.97-.07 1.83-.07 6.59zm10.44 5.4v-5.4c0-4.76 0-5.62-.07-6.6-.08-1.04-.26-1.54-1.3-1.68-.25-.04-.8-.08-1.08-.08-.1 0-.25-.14-.25-.25 0-.18.14-.25.5-.25 1.44 0 3.5.07 3.67.07.22 0 6.84.04 7.56 0 .62-.03 1.2-.14 1.44-.18.15-.03.3-.14.44-.14.1 0 .14.14.14.29 0 .21-.18.57-.25 1.44-.04.28-.11 1.65-.18 2.01-.04.15-.15.33-.29.33-.18 0-.25-.15-.25-.4 0-.22-.04-.72-.18-1.08-.22-.5-.54-.72-2.27-.94-.54-.07-4.21-.1-4.57-.1-.15 0-.18.1-.18.32v8.32c0 .21 0 .32.18.32.4 0 4.57 0 5.29-.07.76-.07 1.22-.11 1.55-.43.21-.22.36-.4.47-.4.1 0 .18.07.18.25s-.18.69-.26 1.7a29.8 29.8 0 00-.14 1.97c0 .26-.07.58-.29.58-.14 0-.21-.1-.21-.29 0-.29 0-.61-.15-1-.1-.44-.4-.8-1.62-.94a77.7 77.7 0 00-4.79-.15c-.18 0-.21.11-.21.22v2.56c0 1.04-.04 4.6 0 5.22.07 2.05.65 2.44 3.78 2.44.83 0 2.34 0 3.17-.32.82-.36 1.26-.9 1.44-2.12.07-.36.14-.47.32-.47s.22.25.22.47c0 .21-.26 2.3-.44 2.95-.21.79-.54.79-1.76.79-2.38 0-4.21-.07-5.5-.1-1.34-.08-2.17-.08-2.64-.08-.07 0-.68 0-1.36.04-.62.03-1.34.07-1.84.07-.32 0-.5-.07-.5-.25 0-.11.07-.26.25-.26.29 0 .68-.1.97-.14.61-.1.68-.72.83-1.62.18-1.26.18-3.67.18-6.62zm33.48 9.28c-1.48 0-3.31-.21-4.61-.82-.43-.22-.47-.33-.47-1.16 0-1.5.15-2.73.18-3.24 0-.32.07-.5.25-.5s.3.1.3.36c0 .25 0 .68.1 1.12.5 2.23 2.88 3.02 5 3.02 3.14 0 4.76-1.76 4.76-4.07 0-2.2-1.2-3.24-4-5.33l-1.44-1.08c-3.42-2.55-4.54-4.42-4.54-6.55 0-3.6 2.85-5.76 7.02-5.76 1.26 0 2.52.18 3.28.36.61.15.86.15 1.12.15.25 0 .32.03.32.21 0 .15-.14 1.15-.14 3.24 0 .47-.04.69-.26.69-.21 0-.25-.15-.28-.4a5.66 5.66 0 00-.47-1.51c-.22-.36-1.26-1.51-4.1-1.51-2.31 0-4.22 1.15-4.22 3.3 0 1.95.97 3.07 4.1 5.2l.9.6c3.86 2.63 5.19 4.76 5.19 7.38 0 1.8-.68 3.75-2.95 5.22-1.33.87-3.31 1.08-5.04 1.08zm23.83-22.14v12.86c0 2.95 0 5.36.14 6.62.11.9.26 1.48 1.23 1.62.43.07 1.15.14 1.44.14.21 0 .25.15.25.26 0 .14-.14.25-.5.25-1.73 0-3.75-.11-3.93-.11-.14 0-2.34.1-3.27.1-.36 0-.5-.06-.5-.24 0-.11.06-.22.24-.22.3 0 .65-.07.94-.14.65-.15.83-.76.94-1.66.14-1.26.14-3.67.14-6.62V26.36l-4.57.08c-1.98.03-2.74.25-3.2.97-.37.54-.4.75-.51.97-.07.25-.18.29-.32.29-.08 0-.22-.07-.22-.25 0-.33.65-3.06.68-3.32.08-.18.22-.57.33-.57.21 0 .54.25 1.4.36.9.1 2.13.14 2.49.14h11.95c1.04 0 1.76-.07 2.27-.14.46-.07.75-.15.9-.15.14 0 .14.18.14.36 0 .94-.1 3.14-.1 3.5 0 .25-.15.4-.3.4-.14 0-.21-.12-.25-.55l-.03-.32c-.11-.94-.8-1.62-3.82-1.7l-3.96-.07zm13.43 11.96v-4.5c0-4.76 0-5.62-.07-6.6-.08-.96-.26-1.54-1.3-1.68-.25-.04-.8-.08-1.08-.08-.1 0-.25-.14-.25-.25 0-.18.14-.25.5-.25 1.44 0 3.35.07 3.64.07.29 0 2.27-.07 3.2-.07.36 0 .54.07.54.25 0 .11-.14.25-.29.25-.21 0-.4 0-.79.08-.83.14-1 .68-1.08 1.69-.07.97-.07 1.83-.07 6.59v4.28c0 4.43.97 6.26 2.34 7.49 1.55 1.4 2.92 1.65 4.72 1.65a6.5 6.5 0 004.9-2.16c1.47-1.76 1.8-4.28 1.8-7.41v-3.85c0-4.76-.04-5.62-.08-6.6-.04-.96-.22-1.54-1.26-1.68-.25-.04-.8-.08-1.08-.08-.14 0-.25-.14-.25-.25 0-.18.14-.25.5-.25 1.4 0 3.24.07 3.42.07.22 0 1.73-.07 2.67-.07.36 0 .5.07.5.25 0 .11-.1.25-.25.25-.22 0-.4 0-.8.08-.86.18-1.04.68-1.11 1.69-.07.97-.04 1.83-.04 6.59v3.27c0 3.31-.43 7.02-2.95 9.18a9.59 9.59 0 01-6.62 2.23c-1.05 0-4.36-.07-6.59-2.16-1.55-1.44-2.77-3.56-2.77-8.02zm27.97.9v-5.4c0-4.76 0-5.62-.07-6.6-.07-1.04-.25-1.54-1.3-1.68-.25-.04-.79-.08-1.08-.08-.1 0-.25-.14-.25-.25 0-.18.14-.25.5-.25 1.44 0 3.5.07 3.68.07.36 0 2.37-.07 4.24-.07 3.17 0 8.97-.29 12.71 3.5a10.75 10.75 0 013.1 7.77c0 3.85-1.66 6.8-3.42 8.6-1.37 1.4-4.21 3.53-9.61 3.53-1.37 0-3.06-.1-4.43-.18-1.37-.1-2.45-.18-2.6-.18-.07 0-.64.04-1.29.04-.65.03-1.4.07-1.9.07-.33 0-.51-.07-.51-.25 0-.11.07-.26.25-.26.29 0 .68-.07.97-.14.61-.14.69-.72.83-1.62.18-1.26.18-3.67.18-6.62zm2.88-12.32v10.23c0 3.24 0 6.08.04 6.66.03.75.1 1.87.36 2.2.4.57 1.5 1.22 5.25 1.22 2.92 0 5.51-.97 7.42-2.77 1.65-1.55 2.48-4.47 2.48-7.28 0-3.88-1.69-6.37-2.99-7.66-2.98-3.03-6.48-3.42-10.26-3.42-.6 0-1.62.1-1.9.21-.3.11-.4.25-.4.61zm29.84 15.88v-2.63c0-1.65-.21-2.27-.68-3.13-.25-.47-4.54-7.27-5.62-8.9a7.94 7.94 0 00-2.08-2.22 3.12 3.12 0 00-1.34-.44c-.18 0-.32-.14-.32-.28 0-.15.1-.22.4-.22.6 0 2.98.07 3.13.07.21 0 1.51-.07 2.73-.07.36 0 .44.07.44.22 0 .1-.22.21-.5.32-.26.1-.4.25-.4.5 0 .44.21.8.43 1.2l5.76 9.53c.65-1.3 4.6-7.85 5.18-8.85.4-.69.54-1.2.54-1.59 0-.43-.14-.68-.5-.79-.29-.07-.47-.22-.47-.36 0-.1.18-.18.5-.18.83 0 1.95.07 2.2.07.22 0 2.48-.07 3.1-.07.21 0 .4.07.4.18 0 .14-.15.32-.4.32-.36 0-.98.11-1.48.4-.61.36-.9.68-1.58 1.51-1.05 1.23-5.51 8.43-6.16 9.72-.54 1.08-.4 2.05-.4 3.06v2.63c0 .5 0 1.8.11 3.06.07.9.29 1.48 1.23 1.62.43.07 1.15.14 1.44.14.18 0 .25.15.25.26 0 .14-.18.25-.5.25-1.77 0-3.82-.11-4-.11-.15 0-2.16.1-3.1.1-.36 0-.5-.06-.5-.24 0-.11.07-.26.25-.26.29 0 .65-.07.94-.14.64-.14.86-.72.93-1.62.07-1.26.07-2.56.07-3.06zm25.24-6.3c0-4.93 3.82-11.95 12.56-11.95 7.13 0 12.53 4.35 12.53 11.48 0 6.84-5.07 12.5-12.7 12.5-8.68 0-12.39-6.52-12.39-12.03zm3.28-.83c0 7.13 4.28 11.6 10 11.6 2.85 0 8.57-1.52 8.57-10.37 0-7.35-4.46-11.2-9.47-11.2-5.29 0-9.1 3.31-9.1 9.97zm28.44 3.57v-5.4c0-4.76 0-5.62-.08-6.6-.07-1.04-.25-1.54-1.3-1.68-.24-.04-.78-.08-1.07-.08-.11 0-.25-.14-.25-.25 0-.18.14-.25.5-.25 1.44 0 3.42.07 3.6.07.61 0 7.49.04 8.2 0 .62-.03 1.16-.03 1.45-.14.18-.04.32-.18.43-.18.14 0 .22.14.22.29 0 .21-.15.57-.26 1.44-.03.28-.07 1.65-.14 2.01-.04.15-.14.33-.29.33-.14 0-.25-.15-.25-.36 0-.26-.1-.76-.29-1.16-.18-.4-.93-.9-2.16-.9l-5.18-.07c-.18 0-.25.07-.25.33v8.35c0 .18 0 .29.21.29l4.32-.04c.54 0 1.01 0 1.44-.04.76-.07 1.19-.18 1.48-.54.14-.18.29-.32.4-.32.14 0 .17.1.17.25 0 .18-.21.69-.28 1.7-.08.6-.11 1.83-.11 2.05 0 .28-.07.6-.29.6-.18 0-.22-.14-.22-.28-.03-.32-.07-.76-.21-1.12-.15-.43-.65-.82-1.62-.97-.8-.1-4.54-.07-5.08-.07-.18 0-.21.07-.21.29v2.45c0 3.02 0 5.43.14 6.62.1.9.29 1.48 1.15 1.62.47.07 1.15.14 1.44.14.18 0 .25.15.25.26 0 .14-.14.25-.5.25-1.76 0-3.82-.11-3.96-.11-.18 0-2.16.1-3.13.1-.33 0-.5-.06-.5-.24 0-.11.07-.26.25-.26.28 0 .68-.1.97-.14.61-.1.68-.72.83-1.62.18-1.26.18-3.67.18-6.62zm50.29-5.4v5.4c0 2.95.03 5.36.18 6.62.1.9.18 1.48 1.15 1.62.43.07 1.15.14 1.4.14.22 0 .3.15.3.26 0 .14-.19.25-.55.25-1.73 0-3.74-.11-3.92-.11-.15 0-2.2.1-3.13.1-.36 0-.5-.06-.5-.24 0-.11.06-.26.24-.26.3 0 .65-.07.94-.14.65-.14.76-.76.86-1.66.15-1.26.15-3.56.15-6.51v-3.06c0-.15-.07-.18-.18-.18h-13.21c-.11 0-.18.03-.18.18v3.06c0 2.95 0 5.29.14 6.55.1.9.22 1.48 1.15 1.62.47.07 1.15.14 1.44.14.18 0 .25.15.25.26 0 .14-.14.25-.5.25-1.76 0-3.78-.11-3.92-.11-.18 0-2.2.1-3.17.1-.33 0-.5-.06-.5-.24 0-.11.07-.26.25-.26.28 0 .68-.07.97-.14.61-.14.68-.72.83-1.62.18-1.26.18-3.67.18-6.62v-5.4c0-4.76 0-5.62-.08-6.6-.07-1.04-.25-1.54-1.3-1.68-.24-.04-.78-.08-1.07-.08-.11 0-.25-.14-.25-.25 0-.18.14-.25.5-.25 1.44 0 3.46.07 3.64.07.14 0 2.16-.07 3.13-.07.36 0 .5.07.5.25 0 .11-.14.25-.25.25-.22 0-.43 0-.8.08-.86.18-1.04.6-1.1 1.69-.04.97-.04 1.9-.04 6.66v.65c0 .18.07.18.18.18h13.2c.12 0 .19 0 .19-.18v-.65c0-4.75-.04-5.69-.07-6.66-.08-1.05-.22-1.55-1.26-1.7-.26-.03-.8-.07-1.08-.07-.15 0-.26-.14-.26-.25 0-.18.15-.25.5-.25 1.41 0 3.46.07 3.6.07.19 0 2.2-.07 3.14-.07.36 0 .54.07.54.25 0 .11-.14.25-.29.25-.21 0-.4 0-.79.08-.83.18-1 .6-1.08 1.69-.07.97-.07 1.83-.07 6.59zm13.32 0v5.4c0 2.95 0 5.36.14 6.62.11.9.22 1.48 1.15 1.62.47.07 1.16.14 1.44.14.18 0 .26.15.26.26 0 .14-.15.25-.5.25-1.77 0-3.82-.11-3.97-.11-.18 0-2.16.1-3.13.1-.32 0-.5-.06-.5-.24 0-.11.07-.26.25-.26.29 0 .68-.07.97-.14.61-.14.72-.72.83-1.62.14-1.26.18-3.67.18-6.62v-5.4c0-4.76 0-5.62-.07-6.6-.08-1.04-.33-1.5-1.01-1.65-.36-.07-.76-.1-.97-.1-.15 0-.26-.15-.26-.26 0-.18.15-.25.5-.25 1.05 0 3.03.07 3.21.07.15 0 2.2-.07 3.17-.07.36 0 .5.07.5.25 0 .11-.14.25-.25.25-.21 0-.43 0-.79.08-.86.18-1.04.6-1.12 1.69-.03.97-.03 1.83-.03 6.59zm13.07 14.68c-1.48 0-3.32-.21-4.61-.82-.43-.22-.47-.33-.47-1.16 0-1.5.14-2.73.18-3.24 0-.32.07-.5.25-.5s.29.1.29.36c0 .25 0 .68.1 1.12.51 2.23 2.89 3.02 5.01 3.02 3.13 0 4.75-1.76 4.75-4.07 0-2.2-1.18-3.24-4-5.33l-1.43-1.08c-3.42-2.55-4.54-4.42-4.54-6.55 0-3.6 2.85-5.76 7.02-5.76 1.26 0 2.52.18 3.28.36.61.15.86.15 1.11.15.26 0 .33.03.33.21 0 .15-.15 1.15-.15 3.24 0 .47-.03.69-.25.69-.21 0-.25-.15-.29-.4a5.66 5.66 0 00-.46-1.51c-.22-.36-1.26-1.51-4.1-1.51-2.31 0-4.22 1.15-4.22 3.3 0 1.95.97 3.07 4.1 5.2l.9.6c3.86 2.63 5.19 4.76 5.19 7.38 0 1.8-.69 3.75-2.95 5.22-1.34.87-3.32 1.08-5.04 1.08zm23.83-22.14v12.86c0 2.95 0 5.36.14 6.62.11.9.25 1.48 1.23 1.62.43.07 1.15.14 1.44.14.21 0 .25.15.25.26 0 .14-.15.25-.5.25-1.73 0-3.75-.11-3.93-.11-.14 0-2.34.1-3.28.1-.36 0-.5-.06-.5-.24 0-.11.07-.22.25-.22.29 0 .65-.07.94-.14.65-.15.83-.76.93-1.66.15-1.26.15-3.67.15-6.62V26.36l-4.57.08c-1.98.03-2.74.25-3.2.97-.37.54-.4.75-.51.97-.07.25-.18.29-.33.29-.07 0-.21-.07-.21-.25 0-.33.65-3.06.68-3.32.07-.18.22-.57.33-.57.21 0 .54.25 1.4.36.9.1 2.12.14 2.48.14h11.96c1.04 0 1.76-.07 2.26-.14.47-.07.76-.15.9-.15.15 0 .15.18.15.36 0 .94-.11 3.14-.11 3.5 0 .25-.14.4-.29.4-.14 0-.21-.12-.25-.55l-.04-.32c-.1-.94-.79-1.62-3.81-1.7l-3.96-.07zm10.62 10.12c0-4.93 3.81-11.95 12.56-11.95 7.13 0 12.53 4.35 12.53 11.48 0 6.84-5.08 12.5-12.7 12.5-8.68 0-12.4-6.52-12.4-12.03zm3.27-.83c0 7.13 4.29 11.6 10.01 11.6 2.85 0 8.57-1.52 8.57-10.37 0-7.35-4.46-11.2-9.47-11.2-5.29 0-9.1 3.31-9.1 9.97zm28.44 3.57v-5.4c0-4.76 0-5.62-.07-6.6-.07-1.04-.25-1.54-1.3-1.68-.25-.04-.79-.08-1.07-.08-.11 0-.26-.14-.26-.25 0-.18.15-.25.5-.25 1.45 0 3.57.07 3.75.07.33 0 2.99-.07 3.96-.07 2.02 0 4.25.18 5.9 1.33.8.58 2.2 2.05 2.2 4.18 0 2.27-.93 4.46-3.89 6.98 2.6 3.24 4.8 6.01 6.63 7.92 1.69 1.73 2.73 2.02 3.53 2.13.6.1.93.1 1.11.1.18 0 .29.15.29.26 0 .18-.18.25-.76.25h-1.98c-1.8 0-2.59-.18-3.38-.61-1.37-.72-2.52-2.2-4.32-4.5-1.33-1.66-2.74-3.64-3.42-4.47-.14-.14-.22-.18-.43-.18l-4.03-.07c-.15 0-.22.07-.22.25v.72c0 2.95 0 5.33.14 6.59.11.9.3 1.48 1.26 1.62.44.07 1.12.14 1.4.14.22 0 .26.15.26.26 0 .14-.14.25-.5.25-1.73 0-3.75-.11-3.9-.11-.03 0-2.15.1-3.12.1-.33 0-.5-.06-.5-.24 0-.11.06-.26.24-.26.3 0 .69-.07.98-.14.6-.14.68-.72.82-1.62.18-1.26.18-3.67.18-6.62zm2.74-12.64v9.83c0 .18.07.29.22.4.46.25 2.08.46 3.49.46.75 0 1.62-.03 2.37-.54 1.08-.72 1.91-2.34 1.91-4.68 0-3.81-2.09-6.01-5.47-6.01-.94 0-1.94.1-2.27.18-.14.07-.25.18-.25.36zm24.4 16.2v-2.63c0-1.65-.2-2.27-.68-3.13-.25-.47-4.53-7.27-5.61-8.9a7.94 7.94 0 00-2.09-2.22 3.12 3.12 0 00-1.33-.44c-.18 0-.33-.14-.33-.28 0-.15.11-.22.4-.22.61 0 2.99.07 3.13.07.22 0 1.51-.07 2.74-.07.36 0 .43.07.43.22 0 .1-.22.21-.5.32-.26.1-.4.25-.4.5 0 .44.22.8.43 1.2l5.76 9.53c.65-1.3 4.61-7.85 5.19-8.85.4-.69.54-1.2.54-1.59 0-.43-.15-.68-.5-.79-.3-.07-.48-.22-.48-.36 0-.1.18-.18.5-.18.84 0 1.95.07 2.2.07.22 0 2.49-.07 3.1-.07.22 0 .4.07.4.18 0 .14-.15.32-.4.32-.36 0-.97.11-1.48.4-.6.36-.9.68-1.58 1.51-1.04 1.23-5.5 8.43-6.16 9.72-.54 1.08-.4 2.05-.4 3.06v2.63c0 .5 0 1.8.12 3.06.07.9.28 1.48 1.22 1.62.43.07 1.15.14 1.44.14.18 0 .25.15.25.26 0 .14-.18.25-.5.25-1.77 0-3.82-.11-4-.11-.14 0-2.16.1-3.1.1-.35 0-.5-.06-.5-.24 0-.11.07-.26.25-.26.3 0 .65-.07.94-.14.65-.14.86-.72.94-1.62.07-1.26.07-2.56.07-3.06zM92.47 69.82v5.4c0 2.95 0 5.36.14 6.62.11.9.22 1.48 1.16 1.62.46.07 1.15.14 1.44.14.18 0 .25.15.25.26 0 .14-.15.25-.5.25-1.77 0-3.82-.11-3.97-.11-.18 0-2.16.1-3.13.1-.32 0-.5-.06-.5-.24 0-.11.07-.26.25-.26.29 0 .68-.07.97-.14.61-.14.72-.72.83-1.62.14-1.26.18-3.67.18-6.62v-5.4c0-4.76 0-5.62-.07-6.6-.07-1.04-.33-1.5-1.01-1.65-.36-.07-.76-.1-.97-.1-.15 0-.25-.15-.25-.26 0-.18.14-.25.5-.25 1.04 0 3.02.07 3.2.07.15 0 2.2-.07 3.17-.07.36 0 .5.07.5.25 0 .11-.14.25-.25.25-.21 0-.43 0-.79.08-.86.18-1.04.6-1.11 1.69-.04.97-.04 1.83-.04 6.59zm13.07 14.68c-1.48 0-3.31-.21-4.61-.82-.43-.22-.47-.33-.47-1.16 0-1.5.15-2.73.18-3.24 0-.32.07-.5.25-.5s.3.1.3.36c0 .25 0 .68.1 1.12.5 2.23 2.88 3.02 5 3.02 3.14 0 4.76-1.76 4.76-4.07 0-2.2-1.2-3.24-4-5.33l-1.44-1.08c-3.42-2.55-4.54-4.42-4.54-6.55 0-3.6 2.85-5.76 7.02-5.76 1.26 0 2.52.18 3.28.36.61.15.86.15 1.12.15.25 0 .32.03.32.21 0 .15-.14 1.15-.14 3.24 0 .47-.04.69-.26.69-.21 0-.25-.15-.28-.4a5.66 5.66 0 00-.47-1.51c-.22-.36-1.26-1.51-4.1-1.51-2.31 0-4.22 1.15-4.22 3.3 0 1.95.97 3.07 4.1 5.2l.9.6c3.86 2.63 5.19 4.76 5.19 7.38 0 1.8-.68 3.75-2.95 5.22-1.33.87-3.31 1.08-5.04 1.08zm35.53-22.14v12.86c0 2.95 0 5.36.14 6.62.11.9.26 1.48 1.23 1.62.43.07 1.15.14 1.44.14.21 0 .25.15.25.26 0 .14-.14.25-.5.25-1.73 0-3.75-.11-3.93-.11-.14 0-2.34.1-3.27.1-.36 0-.5-.06-.5-.24 0-.11.06-.22.24-.22.3 0 .65-.07.94-.14.65-.15.83-.76.94-1.66.14-1.26.14-3.67.14-6.62V62.36l-4.57.08c-1.98.03-2.74.25-3.2.97-.37.54-.4.75-.51.97-.07.25-.18.29-.32.29-.08 0-.22-.07-.22-.25 0-.33.65-3.06.68-3.32.08-.18.22-.57.33-.57.21 0 .54.25 1.4.36.9.1 2.13.14 2.49.14h11.95c1.04 0 1.76-.07 2.27-.14.46-.07.75-.15.9-.15.14 0 .14.18.14.36 0 .94-.1 3.14-.1 3.5 0 .25-.15.4-.3.4-.14 0-.21-.12-.25-.55l-.03-.32c-.11-.94-.8-1.62-3.82-1.7l-3.96-.07zm34.38 7.46v5.4c0 2.95.04 5.36.18 6.62.1.9.18 1.48 1.15 1.62.43.07 1.15.14 1.4.14.22 0 .3.15.3.26 0 .14-.19.25-.55.25-1.72 0-3.74-.11-3.92-.11-.14 0-2.2.1-3.13.1-.36 0-.5-.06-.5-.24 0-.11.07-.26.25-.26.28 0 .64-.07.93-.14.65-.14.76-.76.87-1.66.14-1.26.14-3.56.14-6.51v-3.06c0-.15-.07-.18-.18-.18h-13.21c-.11 0-.18.03-.18.18v3.06c0 2.95 0 5.29.14 6.55.11.9.22 1.48 1.15 1.62.47.07 1.16.14 1.44.14.18 0 .26.15.26.26 0 .14-.15.25-.5.25-1.77 0-3.79-.11-3.93-.11-.18 0-2.2.1-3.17.1-.32 0-.5-.06-.5-.24 0-.11.07-.26.25-.26.29 0 .68-.07.97-.14.61-.14.68-.72.83-1.62.18-1.26.18-3.67.18-6.62v-5.4c0-4.76 0-5.62-.07-6.6-.08-1.04-.26-1.54-1.3-1.68-.25-.04-.8-.08-1.08-.08-.1 0-.25-.14-.25-.25 0-.18.14-.25.5-.25 1.44 0 3.46.07 3.64.07.14 0 2.16-.07 3.13-.07.36 0 .5.07.5.25 0 .11-.14.25-.25.25-.21 0-.43 0-.79.08-.86.18-1.04.6-1.12 1.69-.03.97-.03 1.9-.03 6.66v.65c0 .18.07.18.18.18h13.21c.1 0 .18 0 .18-.18v-.65c0-4.75-.04-5.69-.07-6.66-.07-1.05-.22-1.55-1.26-1.7-.25-.03-.8-.07-1.08-.07-.15 0-.25-.14-.25-.25 0-.18.14-.25.5-.25 1.4 0 3.46.07 3.6.07.18 0 2.2-.07 3.13-.07.36 0 .54.07.54.25 0 .11-.14.25-.29.25-.21 0-.4 0-.79.08-.83.18-1 .6-1.08 1.69-.07.97-.07 1.83-.07 6.59zm10.44 5.4v-5.4c0-4.76 0-5.62-.07-6.6-.07-1.04-.25-1.54-1.3-1.68-.25-.04-.79-.08-1.08-.08-.1 0-.25-.14-.25-.25 0-.18.14-.25.5-.25 1.44 0 3.5.07 3.68.07.21 0 6.84.04 7.56 0 .6-.03 1.18-.14 1.44-.18.14-.03.28-.14.43-.14.1 0 .14.14.14.29 0 .21-.18.57-.25 1.44-.04.28-.1 1.65-.18 2.01-.04.15-.14.33-.29.33-.18 0-.25-.15-.25-.4 0-.22-.04-.72-.18-1.08-.22-.5-.54-.72-2.27-.94-.54-.07-4.21-.1-4.57-.1-.14 0-.18.1-.18.32v8.32c0 .21 0 .32.18.32.4 0 4.57 0 5.3-.07.75-.07 1.22-.11 1.54-.43.22-.22.36-.4.47-.4.1 0 .18.07.18.25s-.18.69-.25 1.7a29.8 29.8 0 00-.15 1.97c0 .26-.07.58-.29.58-.14 0-.21-.1-.21-.29 0-.29 0-.61-.15-1-.1-.44-.4-.8-1.62-.94a77.7 77.7 0 00-4.78-.15c-.18 0-.22.11-.22.22v2.56c0 1.04-.04 4.6 0 5.22.07 2.05.65 2.44 3.78 2.44.83 0 2.34 0 3.17-.32.83-.36 1.26-.9 1.44-2.12.07-.36.14-.47.32-.47s.22.25.22.47c0 .21-.25 2.3-.43 2.95-.22.79-.54.79-1.77.79-2.37 0-4.21-.07-5.5-.1-1.34-.08-2.17-.08-2.63-.08-.08 0-.69 0-1.37.04-.61.03-1.33.07-1.84.07-.32 0-.5-.07-.5-.25 0-.11.07-.26.25-.26.29 0 .68-.1.97-.14.61-.1.69-.72.83-1.62.18-1.26.18-3.67.18-6.62zm31.54 0v-5.4c0-4.76 0-5.62-.08-6.6-.07-1.04-.25-1.61-1.3-1.76-.24-.03-.78-.07-1.07-.07-.11 0-.25-.07-.25-.18 0-.18.14-.25.5-.25 1.44 0 3.5.07 3.67.07.76 0 2.23-.07 3.71-.07 5.3 0 6.66 3.06 6.66 4.68 0 2.41-1.58 3.92-3.2 5.36 2.4.72 5.58 2.92 5.58 6.38 0 3.42-2.56 6.8-7.96 6.8-.58 0-1.73-.04-2.74-.1L218.9 84c-.07 0-.65.04-1.3.04-.64.03-1.4.07-1.9.07-.33 0-.5-.07-.5-.25 0-.11.07-.18.25-.18.28 0 .68-.11.97-.15.61-.1.68-.79.83-1.69.18-1.26.18-3.67.18-6.62zm2.73-12.82v8.06c0 .22.07.3.22.33.18.03.75.14 1.94.14 1.77 0 2.45-.07 3.1-.79a4.7 4.7 0 001.22-3.28c0-2.34-1.3-4.93-4.46-4.93-.36 0-1.12.04-1.62.15-.29.07-.4.14-.4.32zm0 9.76v1.69c0 2.37 0 6.05.04 6.51.1 1.48.1 1.84 1.08 2.3.86.4 2.2.44 2.77.44 2.09 0 4.64-.8 4.64-4.72 0-1.36-.54-4-3.02-5.58-1.08-.68-2.09-.64-2.84-.79-.4-.07-1.98-.07-2.49-.07-.1 0-.18.07-.18.22zm18.29 3.06v-5.4c0-4.76 0-5.62-.07-6.6-.07-1.04-.25-1.54-1.3-1.68-.25-.04-.79-.08-1.08-.08-.1 0-.25-.14-.25-.25 0-.18.14-.25.5-.25 1.44 0 3.5.07 3.68.07.21 0 6.84.04 7.56 0 .6-.03 1.18-.14 1.44-.18.14-.03.28-.14.43-.14.1 0 .14.14.14.29 0 .21-.18.57-.25 1.44-.04.28-.1 1.65-.18 2.01-.04.15-.14.33-.29.33-.18 0-.25-.15-.25-.4 0-.22-.04-.72-.18-1.08-.22-.5-.54-.72-2.27-.94-.54-.07-4.21-.1-4.57-.1-.14 0-.18.1-.18.32v8.32c0 .21 0 .32.18.32.4 0 4.57 0 5.3-.07.75-.07 1.22-.11 1.54-.43.22-.22.36-.4.47-.4.1 0 .18.07.18.25s-.18.69-.25 1.7a29.8 29.8 0 00-.15 1.97c0 .26-.07.58-.29.58-.14 0-.21-.1-.21-.29 0-.29 0-.61-.15-1-.1-.44-.4-.8-1.62-.94a77.7 77.7 0 00-4.78-.15c-.18 0-.22.11-.22.22v2.56c0 1.04-.04 4.6 0 5.22.07 2.05.65 2.44 3.78 2.44.83 0 2.34 0 3.17-.32.83-.36 1.26-.9 1.44-2.12.07-.36.14-.47.32-.47s.22.25.22.47c0 .21-.25 2.3-.43 2.95-.22.79-.54.79-1.77.79-2.37 0-4.21-.07-5.5-.1-1.34-.08-2.17-.08-2.63-.08-.08 0-.69 0-1.37.04-.61.03-1.33.07-1.84.07-.32 0-.5-.07-.5-.25 0-.11.07-.26.25-.26.29 0 .68-.1.97-.14.61-.1.69-.72.83-1.62.18-1.26.18-3.67.18-6.62zm21.78 9.28c-1.48 0-3.31-.21-4.6-.82-.44-.22-.48-.33-.48-1.16 0-1.5.15-2.73.18-3.24 0-.32.08-.5.26-.5s.28.1.28.36c0 .25 0 .68.11 1.12.5 2.23 2.88 3.02 5 3.02 3.14 0 4.76-1.76 4.76-4.07 0-2.2-1.19-3.24-4-5.33l-1.44-1.08c-3.42-2.55-4.53-4.42-4.53-6.55 0-3.6 2.84-5.76 7.02-5.76 1.26 0 2.52.18 3.27.36.61.15.87.15 1.12.15.25 0 .32.03.32.21 0 .15-.14 1.15-.14 3.24 0 .47-.04.69-.25.69-.22 0-.26-.15-.3-.4a5.66 5.66 0 00-.46-1.51c-.22-.36-1.26-1.51-4.1-1.51-2.3 0-4.22 1.15-4.22 3.3 0 1.95.98 3.07 4.1 5.2l.9.6c3.86 2.63 5.2 4.76 5.2 7.38 0 1.8-.7 3.75-2.96 5.22-1.33.87-3.31 1.08-5.04 1.08zm23.83-22.14v12.86c0 2.95 0 5.36.15 6.62.1.9.25 1.48 1.22 1.62.43.07 1.15.14 1.44.14.22 0 .25.15.25.26 0 .14-.14.25-.5.25-1.73 0-3.75-.11-3.93-.11-.14 0-2.34.1-3.27.1-.36 0-.5-.06-.5-.24 0-.11.07-.22.25-.22.28 0 .64-.07.93-.14.65-.15.83-.76.94-1.66.14-1.26.14-3.67.14-6.62V62.36l-4.57.08c-1.98.03-2.74.25-3.2.97-.36.54-.4.75-.5.97-.08.25-.19.29-.33.29-.07 0-.22-.07-.22-.25 0-.33.65-3.06.69-3.32.07-.18.21-.57.32-.57.22 0 .54.25 1.4.36.9.1 2.13.14 2.49.14h11.95c1.04 0 1.76-.07 2.27-.14.47-.07.75-.15.9-.15.14 0 .14.18.14.36 0 .94-.1 3.14-.1 3.5 0 .25-.15.4-.3.4-.14 0-.21-.12-.25-.55l-.03-.32c-.11-.94-.8-1.62-3.82-1.7l-3.96-.07zm48.31-1l2.16 18.79c.11 1.08.33 2.73 1.62 3.17.9.28 1.73.28 2.06.28.14 0 .25.08.25.22 0 .18-.29.29-.65.29-.72 0-4.25-.07-5.4-.18-.76-.07-.9-.18-.9-.33 0-.1.07-.21.22-.25.18-.03.21-.5.14-1.08l-1.51-15.48h-.07l-7.64 15.63c-.64 1.33-.82 1.62-1.11 1.62-.29 0-.47-.3-1.08-1.4-.83-1.52-2.92-5.44-3.71-7.1-.94-1.94-3.5-7.1-4.03-8.35h-.15L311.34 81c-.04.47-.04 1.05-.04 1.55 0 .47.3.76.76.86.54.15 1 .18 1.22.18.11 0 .26.11.26.22 0 .22-.22.29-.58.29-1.19 0-2.7-.11-2.95-.11-.29 0-1.8.1-2.67.1-.32 0-.54-.06-.54-.28 0-.1.15-.22.33-.22.25 0 .47-.03.93-.1 1.05-.18 1.08-1.3 1.23-2.45l2.3-19.98c.04-.33.18-.54.36-.54.22 0 .47.1.65.47l9.58 19 9.21-18.97c.15-.29.29-.5.5-.5.22 0 .4.25.47.83zm11.7 13.86v-5.4c0-4.76 0-5.62-.07-6.6-.07-1.04-.25-1.54-1.3-1.68-.25-.04-.79-.08-1.07-.08-.11 0-.26-.14-.26-.25 0-.18.15-.25.5-.25 1.45 0 3.5.07 3.68.07.22 0 6.84.04 7.56 0 .61-.03 1.19-.14 1.44-.18.14-.03.29-.14.43-.14.11 0 .15.14.15.29 0 .21-.18.57-.26 1.44-.03.28-.1 1.65-.18 2.01-.03.15-.14.33-.28.33-.18 0-.26-.15-.26-.4 0-.22-.03-.72-.18-1.08-.21-.5-.54-.72-2.26-.94-.54-.07-4.22-.1-4.58-.1-.14 0-.18.1-.18.32v8.32c0 .21 0 .32.18.32.4 0 4.58 0 5.3-.07.75-.07 1.22-.11 1.54-.43.22-.22.36-.4.47-.4.11 0 .18.07.18.25s-.18.69-.25 1.7a29.8 29.8 0 00-.14 1.97c0 .26-.08.58-.3.58-.14 0-.2-.1-.2-.29 0-.29 0-.61-.15-1-.11-.44-.4-.8-1.62-.94a77.7 77.7 0 00-4.79-.15c-.18 0-.22.11-.22.22v2.56c0 1.04-.03 4.6 0 5.22.08 2.05.65 2.44 3.78 2.44.83 0 2.34 0 3.17-.32.83-.36 1.26-.9 1.44-2.12.07-.36.15-.47.33-.47.18 0 .21.25.21.47 0 .21-.25 2.3-.43 2.95-.22.79-.54.79-1.76.79-2.38 0-4.22-.07-5.51-.1-1.33-.08-2.16-.08-2.63-.08-.07 0-.68 0-1.37.04-.61.03-1.33.07-1.83.07-.33 0-.5-.07-.5-.25 0-.11.06-.26.24-.26.3 0 .69-.1.98-.14.6-.1.68-.72.82-1.62.18-1.26.18-3.67.18-6.62zm19.84 0v-5.4c0-4.76 0-5.62-.07-6.6-.07-1.04-.25-1.54-1.3-1.68-.25-.04-.79-.08-1.08-.08-.1 0-.25-.14-.25-.25 0-.18.14-.25.5-.25 1.44 0 3.5.07 3.68.07.36 0 2.37-.07 4.24-.07 3.17 0 8.97-.29 12.71 3.5a10.75 10.75 0 013.1 7.77c0 3.85-1.66 6.8-3.42 8.6-1.37 1.4-4.21 3.53-9.61 3.53-1.37 0-3.06-.1-4.43-.18-1.37-.1-2.45-.18-2.6-.18-.07 0-.64.04-1.29.04-.65.03-1.4.07-1.9.07-.33 0-.51-.07-.51-.25 0-.11.07-.26.25-.26.29 0 .68-.07.97-.14.61-.14.69-.72.83-1.62.18-1.26.18-3.67.18-6.62zm2.88-12.32v10.23c0 3.24 0 6.08.04 6.66.03.75.1 1.87.36 2.2.4.57 1.5 1.22 5.25 1.22 2.92 0 5.51-.97 7.42-2.77 1.65-1.55 2.48-4.47 2.48-7.28 0-3.88-1.69-6.37-2.99-7.66-2.98-3.03-6.48-3.42-10.26-3.42-.6 0-1.62.1-1.9.21-.3.11-.4.25-.4.61zm28.8 6.92v5.4c0 2.95 0 5.36.14 6.62.11.9.22 1.48 1.16 1.62.46.07 1.15.14 1.44.14.18 0 .25.15.25.26 0 .14-.15.25-.5.25-1.77 0-3.82-.11-3.97-.11-.18 0-2.16.1-3.13.1-.32 0-.5-.06-.5-.24 0-.11.07-.26.25-.26.29 0 .68-.07.97-.14.61-.14.72-.72.83-1.62.14-1.26.18-3.67.18-6.62v-5.4c0-4.76 0-5.62-.07-6.6-.07-1.04-.33-1.5-1.01-1.65-.36-.07-.76-.1-.97-.1-.15 0-.25-.15-.25-.26 0-.18.14-.25.5-.25 1.04 0 3.02.07 3.2.07.15 0 2.2-.07 3.17-.07.36 0 .5.07.5.25 0 .11-.14.25-.25.25-.21 0-.43 0-.79.08-.86.18-1.04.6-1.11 1.69-.04.97-.04 1.83-.04 6.59zm21.31 14.68c-4.75 0-7.95-1.11-10.44-3.27-3.1-2.67-3.85-6.16-3.85-9.07 0-2.06.76-5.62 3.56-8.36 1.91-1.83 4.8-3.27 9.65-3.27 1.26 0 3.06.1 4.61.36 1.19.21 2.2.43 3.24.47.32 0 .4.14.4.32 0 .25-.08.61-.15 1.73-.03 1-.03 2.7-.07 3.13-.04.47-.18.65-.36.65-.22 0-.25-.22-.25-.65 0-1.19-.5-2.41-1.33-3.06-1.12-.94-3.42-1.7-6.23-1.7-4.07 0-6.01 1.09-7.13 2.13-2.34 2.16-2.84 4.9-2.84 8 0 5.86 4.64 11.08 11.4 11.08 2.38 0 3.97-.18 5.23-1.44a5.7 5.7 0 001.22-2.55c.07-.33.11-.44.33-.44.14 0 .28.22.28.44 0 .21-.43 2.88-.75 3.92-.18.58-.25.68-.8.9-1.29.5-3.67.68-5.72.68zm17.68-14.68v5.4c0 2.95 0 5.36.14 6.62.11.9.22 1.48 1.15 1.62.47.07 1.16.14 1.44.14.18 0 .26.15.26.26 0 .14-.15.25-.5.25-1.77 0-3.82-.11-3.97-.11-.18 0-2.16.1-3.13.1-.32 0-.5-.06-.5-.24 0-.11.07-.26.25-.26.29 0 .68-.07.97-.14.61-.14.72-.72.83-1.62.14-1.26.18-3.67.18-6.62v-5.4c0-4.76 0-5.62-.07-6.6-.08-1.04-.33-1.5-1.01-1.65-.36-.07-.76-.1-.97-.1-.15 0-.26-.15-.26-.26 0-.18.15-.25.5-.25 1.05 0 3.03.07 3.21.07.15 0 2.2-.07 3.17-.07.36 0 .5.07.5.25 0 .11-.14.25-.25.25-.21 0-.43 0-.79.08-.86.18-1.04.6-1.12 1.69-.03.97-.03 1.83-.03 6.59zm11.37-4.32l.36 14.43c.08 2.52.36 3.28 1.23 3.5.57.14 1.3.17 1.58.17.15 0 .25.11.25.26 0 .18-.21.25-.57.25-1.8 0-3.06-.11-3.35-.11-.29 0-1.62.1-3.06.1-.32 0-.5-.03-.5-.24 0-.15.1-.26.25-.26.25 0 .83-.03 1.3-.18.79-.21.9-1.04.9-3.81V62.08c0-1.23.17-1.55.43-1.55.36 0 .9.61 1.22.93.5.5 5.11 5.4 10 10.44 3.14 3.24 6.52 6.88 7.5 7.89l-.33-15.34c-.03-1.98-.21-2.66-1.19-2.84-.57-.11-1.3-.15-1.54-.15-.22 0-.26-.18-.26-.28 0-.18.26-.22.62-.22 1.44 0 2.95.07 3.3.07.37 0 1.41-.07 2.7-.07.33 0 .58.04.58.22 0 .1-.14.28-.36.28-.14 0-.4 0-.75.08-1.05.21-1.12.82-1.12 2.66l-.07 17.93c0 2.01-.04 2.2-.25 2.2-.33 0-.65-.26-2.41-1.88-.33-.29-4.9-4.79-8.25-8.28-3.67-3.85-7.23-7.6-8.2-8.67zm28.3 9.72v-5.4c0-4.76 0-5.62-.07-6.6-.07-1.04-.25-1.54-1.3-1.68-.25-.04-.79-.08-1.08-.08-.1 0-.25-.14-.25-.25 0-.18.14-.25.5-.25 1.44 0 3.5.07 3.68.07.21 0 6.84.04 7.56 0 .6-.03 1.18-.14 1.44-.18.14-.03.28-.14.43-.14.1 0 .14.14.14.29 0 .21-.18.57-.25 1.44-.04.28-.1 1.65-.18 2.01-.04.15-.14.33-.29.33-.18 0-.25-.15-.25-.4 0-.22-.04-.72-.18-1.08-.22-.5-.54-.72-2.27-.94-.54-.07-4.21-.1-4.57-.1-.14 0-.18.1-.18.32v8.32c0 .21 0 .32.18.32.4 0 4.57 0 5.3-.07.75-.07 1.22-.11 1.54-.43.22-.22.36-.4.47-.4.1 0 .18.07.18.25s-.18.69-.25 1.7a29.8 29.8 0 00-.15 1.97c0 .26-.07.58-.29.58-.14 0-.21-.1-.21-.29 0-.29 0-.61-.15-1-.1-.44-.4-.8-1.62-.94a77.7 77.7 0 00-4.78-.15c-.18 0-.22.11-.22.22v2.56c0 1.04-.04 4.6 0 5.22.07 2.05.65 2.44 3.78 2.44.83 0 2.34 0 3.17-.32.83-.36 1.26-.9 1.44-2.12.07-.36.14-.47.32-.47s.22.25.22.47c0 .21-.25 2.3-.43 2.95-.22.79-.54.79-1.77.79-2.37 0-4.21-.07-5.5-.1-1.34-.08-2.17-.08-2.63-.08-.08 0-.69 0-1.37.04-.61.03-1.33.07-1.84.07-.32 0-.5-.07-.5-.25 0-.11.07-.26.25-.26.29 0 .68-.1.97-.14.61-.1.69-.72.83-1.62.18-1.26.18-3.67.18-6.62zM492.96 84c-1.37 0-1.94-1.08-1.94-1.98 0-.83.57-1.98 1.98-1.98 1.11 0 1.98.72 1.98 1.87 0 1.15-.8 2.09-2.02 2.09z" fill="#676058"/><path d="M84 122.67v-1.2h13v1.2H84zm31.62-11.13v11c0 2.5 0 4.55.13 5.64.07.75.23 1.33 1.01 1.43.36.05.94.1 1.17.1.16 0 .2.08.2.16 0 .13-.12.2-.4.2-1.44 0-3.08-.07-3.2-.07-.14 0-1.77.08-2.55.08-.29 0-.42-.05-.42-.21 0-.08.05-.16.2-.16.24 0 .55-.05.79-.1.52-.1.65-.68.75-1.43.13-1.1.13-3.15.13-5.64v-11l-3.85.05c-1.6.03-2.23.21-2.65.83-.28.45-.36.63-.44.81-.08.2-.16.26-.26.26-.08 0-.13-.08-.13-.23 0-.26.52-2.5.57-2.7.05-.16.16-.5.26-.5.18 0 .44.26 1.15.31.75.08 1.74.13 2.05.13h9.75c.83 0 1.43-.05 1.85-.13.39-.05.62-.13.72-.13.13 0 .13.16.13.31 0 .78-.07 2.58-.07 2.86 0 .24-.08.34-.19.34-.13 0-.18-.08-.2-.44l-.03-.29c-.08-.78-.7-1.38-3.2-1.43l-3.27-.05zm13.9 8.22v3.9c0 2.13 0 3.87.11 4.78.08.65.16 1.07.83 1.17.34.05.83.1 1.04.1.13 0 .18.1.18.19 0 .1-.1.18-.36.18-1.27 0-2.76-.08-2.86-.08-.13 0-1.56.08-2.26.08-.24 0-.37-.05-.37-.18 0-.08.06-.19.19-.19.2 0 .49-.05.7-.1.44-.1.52-.52.6-1.17.1-.91.13-2.65.13-4.78v-3.9c0-3.44 0-4.06-.06-4.76-.05-.76-.23-1.1-.72-1.2a4.09 4.09 0 00-.7-.08c-.11 0-.19-.1-.19-.18 0-.13.1-.18.37-.18.75 0 2.18.05 2.31.05.1 0 1.59-.05 2.29-.05.26 0 .36.05.36.18 0 .08-.1.18-.18.18-.16 0-.31 0-.57.06-.63.13-.76.44-.8 1.22-.03.7-.03 1.32-.03 4.76zm13.03-5.39v9.29c0 2.13 0 3.87.1 4.78.08.65.19 1.07.89 1.17.31.05.83.1 1.04.1.16 0 .18.1.18.19 0 .1-.1.18-.36.18-1.25 0-2.7-.08-2.84-.08-.1 0-1.69.08-2.36.08-.26 0-.37-.05-.37-.18 0-.08.06-.16.19-.16.2 0 .46-.05.67-.1.47-.1.6-.55.68-1.2.1-.91.1-2.65.1-4.78v-9.29l-3.3.06c-1.43.02-1.98.18-2.31.7-.26.39-.29.54-.37.7-.05.18-.13.2-.23.2-.05 0-.16-.04-.16-.17 0-.24.47-2.21.5-2.4.05-.13.15-.41.23-.41.16 0 .39.18 1.01.26.65.08 1.54.1 1.8.1h8.63c.75 0 1.27-.05 1.64-.1.34-.05.54-.1.65-.1.1 0 .1.12.1.25 0 .68-.08 2.27-.08 2.53 0 .18-.1.28-.2.28s-.16-.08-.19-.39l-.02-.23c-.08-.68-.57-1.17-2.76-1.22l-2.86-.06zm9.7 8.64v-3.25c0-3.44 0-4.06-.05-4.76-.05-.7-.18-1.12-.94-1.22a7.36 7.36 0 00-.78-.06c-.08 0-.18-.1-.18-.18 0-.13.1-.18.36-.18 1.04 0 2.42.05 2.63.05.2 0 1.64-.05 2.31-.05.26 0 .4.05.4.18 0 .08-.11.18-.21.18-.16 0-.29 0-.58.06-.6.1-.72.49-.78 1.22-.05.7-.05 1.32-.05 4.76v3.09c0 3.2.7 4.52 1.7 5.4a4.46 4.46 0 003.4 1.2 4.7 4.7 0 003.53-1.56c1.07-1.27 1.3-3.09 1.3-5.35v-2.78c0-3.44-.02-4.06-.05-4.76-.02-.7-.15-1.12-.9-1.22a7.36 7.36 0 00-.79-.06c-.1 0-.18-.1-.18-.18 0-.13.1-.18.36-.18 1.02 0 2.34.05 2.47.05.16 0 1.25-.05 1.93-.05.26 0 .36.05.36.18 0 .08-.08.18-.18.18-.16 0-.29 0-.57.06-.63.13-.76.49-.8 1.22-.06.7-.03 1.32-.03 4.76v2.36c0 2.4-.32 5.07-2.14 6.63a6.92 6.92 0 01-4.78 1.61c-.75 0-3.15-.05-4.76-1.56-1.12-1.04-2-2.57-2-5.8zm21.6 7.35a8.4 8.4 0 01-3.32-.6c-.31-.15-.34-.23-.34-.83 0-1.09.1-1.97.13-2.34 0-.23.05-.36.18-.36s.21.08.21.26 0 .5.08.8c.36 1.62 2.08 2.19 3.61 2.19 2.26 0 3.43-1.27 3.43-2.94 0-1.58-.85-2.34-2.88-3.85l-1.04-.78c-2.47-1.84-3.28-3.2-3.28-4.73 0-2.6 2.06-4.16 5.07-4.16.91 0 1.82.13 2.37.26.44.1.62.1.8.1.19 0 .24.03.24.16 0 .1-.1.83-.1 2.34 0 .34-.03.5-.19.5-.15 0-.18-.1-.2-.29-.03-.26-.21-.86-.34-1.1-.16-.25-.91-1.08-2.97-1.08-1.66 0-3.04.83-3.04 2.39 0 1.4.7 2.2 2.96 3.74l.65.44c2.79 1.9 3.75 3.44 3.75 5.33 0 1.3-.5 2.7-2.13 3.77-.97.63-2.4.78-3.64.78zm23.46-12.4v4.63c0 3.82.1 5.49.57 5.95.42.42 1.1.6 3.12.6 1.38 0 2.52-.02 3.15-.78.33-.41.6-1.06.67-1.56.03-.2.08-.34.24-.34.13 0 .15.1.15.4 0 .28-.18 1.84-.39 2.6-.18.6-.26.7-1.64.7-1.87 0-3.22-.06-4.31-.08a55.3 55.3 0 00-2.65-.08c-.1 0-.55.03-1.07.03-.52.02-1.1.05-1.48.05-.29 0-.42-.05-.42-.21 0-.08.05-.16.21-.16.23 0 .55-.05.78-.1.52-.1.65-.68.75-1.43.13-1.1.13-3.15.13-5.64v-4.58c0-4.05 0-4.78-.05-5.61-.05-.89-.26-1.3-1.12-1.49-.2-.05-.65-.07-.88-.07-.1 0-.2-.06-.2-.16 0-.16.12-.2.4-.2 1.18 0 2.82.07 2.95.07.13 0 2.02-.08 2.8-.08.29 0 .42.05.42.21 0 .1-.1.16-.2.16-.19 0-.55.02-.87.07-.75.13-.96.58-1.01 1.49-.05.83-.05 1.56-.05 5.61zm14.69 1.8v3.9c0 2.13 0 3.87.1 4.78.08.65.16 1.07.83 1.17.34.05.84.1 1.04.1.13 0 .19.1.19.19 0 .1-.1.18-.37.18-1.27 0-2.75-.08-2.86-.08-.13 0-1.56.08-2.26.08-.23 0-.36-.05-.36-.18 0-.08.05-.19.18-.19.2 0 .5-.05.7-.1.44-.1.52-.52.6-1.17.1-.91.13-2.65.13-4.78v-3.9c0-3.44 0-4.06-.05-4.76-.06-.76-.24-1.1-.73-1.2a4.09 4.09 0 00-.7-.08c-.1 0-.19-.1-.19-.18 0-.13.1-.18.37-.18.75 0 2.18.05 2.31.05.1 0 1.59-.05 2.29-.05.26 0 .36.05.36.18 0 .08-.1.18-.18.18-.15 0-.31 0-.57.06-.62.13-.75.44-.8 1.22-.03.7-.03 1.32-.03 4.76zm8.73-3.7l4.32 11.13a212.3 212.3 0 004.81-12.09c.1-.34.2-.65.2-.83 0-.18-.07-.39-.3-.47-.26-.08-.52-.08-.78-.08-.13 0-.26-.07-.26-.18 0-.13.15-.18.52-.18.9 0 1.95.05 2.23.05.13 0 1.12-.05 1.8-.05.23 0 .36.05.36.16 0 .1-.08.2-.26.2-.16 0-.68 0-1.1.26-.3.21-.67.52-1.27 2.03-.26.63-1.37 3.28-2.54 5.98-1.4 3.23-2.42 5.62-2.94 6.71-.63 1.33-.76 1.66-.99 1.66-.26 0-.42-.28-.86-1.35l-5.61-13.54c-.52-1.25-.84-1.49-1.59-1.67-.36-.08-.75-.08-.88-.08s-.19-.13-.19-.2c0-.13.24-.16.6-.16 1.1 0 2.4.05 2.68.05.23 0 1.25-.05 2.13-.05.42 0 .63.05.63.16 0 .1-.08.2-.24.2-.26 0-.62.03-.83.1-.23.11-.26.24-.26.4 0 .28.29.96.62 1.84zm18.36 3.7v3.9c0 2.13 0 3.87.1 4.78.08.65.16 1.07.84 1.17.33.05.83.1 1.04.1.13 0 .18.1.18.19 0 .1-.1.18-.37.18-1.27 0-2.75-.08-2.86-.08-.13 0-1.56.08-2.26.08-.23 0-.36-.05-.36-.18 0-.08.05-.19.18-.19.2 0 .5-.05.7-.1.44-.1.52-.52.6-1.17.1-.91.13-2.65.13-4.78v-3.9c0-3.44 0-4.06-.05-4.76-.05-.76-.24-1.1-.73-1.2a4.09 4.09 0 00-.7-.08c-.1 0-.18-.1-.18-.18 0-.13.1-.18.36-.18.75 0 2.18.05 2.31.05.1 0 1.59-.05 2.3-.05.25 0 .36.05.36.18 0 .08-.1.18-.19.18-.15 0-.3 0-.57.06-.62.13-.75.44-.8 1.22-.03.7-.03 1.32-.03 4.76zm6.86 3.25v-3.25c0-3.44 0-4.06-.05-4.76-.05-.7-.18-1.12-.93-1.22a7.36 7.36 0 00-.78-.06c-.08 0-.19-.1-.19-.18 0-.13.1-.18.37-.18 1.04 0 2.42.05 2.62.05.21 0 1.64-.05 2.32-.05.26 0 .39.05.39.18 0 .08-.1.18-.21.18-.16 0-.29 0-.57.06-.6.1-.73.49-.78 1.22-.05.7-.05 1.32-.05 4.76v3.09c0 3.2.7 4.52 1.69 5.4a4.46 4.46 0 003.4 1.2 4.7 4.7 0 003.54-1.56c1.06-1.27 1.3-3.09 1.3-5.35v-2.78c0-3.44-.03-4.06-.05-4.76-.03-.7-.16-1.12-.91-1.22a7.36 7.36 0 00-.78-.06c-.1 0-.19-.1-.19-.18 0-.13.1-.18.37-.18 1.01 0 2.34.05 2.47.05.15 0 1.25-.05 1.92-.05.26 0 .37.05.37.18 0 .08-.08.18-.19.18-.15 0-.28 0-.57.06-.62.13-.75.49-.8 1.22-.06.7-.03 1.32-.03 4.76v2.36c0 2.4-.31 5.07-2.13 6.63a6.92 6.92 0 01-4.79 1.61c-.75 0-3.14-.05-4.75-1.56-1.12-1.04-2-2.57-2-5.8zm21.61 7.35a8.4 8.4 0 01-3.33-.6c-.31-.15-.34-.23-.34-.83 0-1.09.1-1.97.13-2.34 0-.23.06-.36.19-.36s.2.08.2.26 0 .5.08.8c.37 1.62 2.08 2.19 3.62 2.19 2.26 0 3.43-1.27 3.43-2.94 0-1.58-.86-2.34-2.89-3.85l-1.04-.78c-2.47-1.84-3.27-3.2-3.27-4.73 0-2.6 2.05-4.16 5.07-4.16.9 0 1.82.13 2.36.26.44.1.63.1.8.1.19 0 .24.03.24.16 0 .1-.1.83-.1 2.34 0 .34-.03.5-.18.5-.16 0-.19-.1-.21-.29-.03-.26-.21-.86-.34-1.1-.16-.25-.91-1.08-2.96-1.08-1.67 0-3.05.83-3.05 2.39 0 1.4.7 2.2 2.97 3.74l.65.44c2.78 1.9 3.74 3.44 3.74 5.33 0 1.3-.5 2.7-2.13 3.77-.96.63-2.4.78-3.64.78z" fill="#837D75"/><path d="M20.27 38.32c0-6.1-2.55-11.22-3.93-12.8-1.57-1.76-1.77-2.36-1.77-3.34 0-.59.99-1.18 1.77-1.18 3.15 0 10.62 2.36 13.76 3.54 2.36 1.18 3.34 2.17 3.34 5.12 0 13.97-10.02 30.5-16.9 38.77-.79 1.18-1.57 1.57-2.56 1.57-.39 0-.98-.4-.98-.98 0-.6.2-1.18.79-2.56 2.95-6.3 6.48-16.93 6.48-28.14zm25.56 0c0-6.1-2.56-11.22-3.93-12.8-1.58-1.76-1.77-2.36-1.77-3.34 0-.59.98-1.18 1.77-1.18 3.14 0 10.61 2.36 13.76 3.54 2.36 1.18 3.34 2.17 3.34 5.12 0 13.97-10.03 30.5-16.9 38.77-.8 1.18-1.58 1.57-2.56 1.57-.4 0-.98-.4-.98-.98 0-.6.2-1.18.78-2.56 2.95-6.3 6.49-16.93 6.49-28.14z" fill="#EBE4DA"/></g></svg>